# xmcd
#
# Track frame offsets: 
#        150
#        2850
#        19829
#        35596
#        52134
#        69324
#        86281
#        104004
#        123049
#        140837
#        158830
#        176006
#        191011
#
# Disc length: 2787 seconds
#
# Revision: 0
# Processed by: cddbd v1.5.2PL0 Copyright (c) Steve Scherf et al.
# Submitted via: ExactAudioCopy v0.99pb5
#
DISCID=b10ae10d
DTITLE=J. Williams - Young Love
DYEAR=2009
DGENRE=Hip-Hop
TTITLE0=Intro
TTITLE1=Ghetto Flower
TTITLE2=Set It Off
TTITLE3=Blow Your Mind
TTITLE4=Flavour
TTITLE5=Soldieress (feat. Temple Jones)
TTITLE6=Vanilla Ladies (feat D. Love)
TTITLE7=Stand With You (feat. Lavina Williams)
TTITLE8=Beautiful
TTITLE9=Why
TTITLE10=Crazy Love
TTITLE11=Your Style (feat. Erakah)
TTITLE12=Till Its Gone
EXTD=
EXTT0=
EXTT1=
EXTT2=
EXTT3=
EXTT4=
EXTT5=
EXTT6=
EXTT7=
EXTT8=
EXTT9=
EXTT10=
EXTT11=
EXTT12=
PLAYORDER=
